<svg xmlns="http://www.w3.org/2000/svg" width="64" height="64" viewBox="0 0 64 64" fill="none">
  <rect width="64" height="64" rx="16" fill="#FBFAF7"/>
  <rect x="8.5" y="8.5" width="47" height="47" rx="11.5" fill="#FFFEFA" stroke="#9F6F55" stroke-opacity="0.32"/>
  <rect x="14" y="17" width="36" height="30" rx="7" fill="#24211D"/>
  <path d="M20 17.5C20 15.567 21.567 14 23.5 14H40.5C42.433 14 44 15.567 44 17.5V20H40V18.75C40 18.336 39.664 18 39.25 18H24.75C24.336 18 24 18.336 24 18.75V20H20V17.5Z" fill="#9F6F55"/>
  <path d="M14 28H50" stroke="#FBFAF7" stroke-opacity="0.82" stroke-width="2"/>
  <path d="M32 25.5V30.5" stroke="#C5AD8F" stroke-width="3" stroke-linecap="round"/>
  <path d="M22 37H42" stroke="#C5AD8F" stroke-width="2" stroke-linecap="round"/>
  <path d="M26 42H38" stroke="#FBFAF7" stroke-opacity="0.68" stroke-width="2" stroke-linecap="round"/>
  <circle cx="48" cy="16" r="3" fill="#9F6F55"/>
</svg>
